<?xml version="1.0" encoding="UTF-8"?>
<svg width="119px" height="72px" viewBox="0 0 119 72" version="1.1" xmlns="http://www.w3.org/2000/svg" xmlns:xlink="http://www.w3.org/1999/xlink">
    <title>Artboard</title>
    <g id="Artboard" stroke="none" stroke-width="1" fill="none" fill-rule="evenodd">
        <g id="Group-15" transform="translate(15.000000, 11.000000)">
            <path d="M89,44.4000583 C89,19.8785832 69.0766714,0 44.5,0 C25.1261645,0 8.64400836,12.3529453 2.53378429,29.595383 C0.892886027,34.2258328 0,39.2089074 0,44.4000583" id="Path" stroke="#D8D8D8" stroke-width="5.84576" stroke-linecap="round"></path>
            <path d="M89,44.4000583 C89,30.1292446 82.2521381,17.4309389 71.7662657,9.30823292" id="Path-Copy-3" stroke="#0D76D6" stroke-width="5.84576" stroke-linecap="round"></path>
            <path d="M57.1366958,11.9259776 C57.5338079,11.9245839 57.8678928,12.2232179 57.9108684,12.6180002 L62.0196124,50.3616559 C62.3183692,53.1060895 60.3357565,55.5730828 57.5913229,55.8718396 C57.4152914,55.8910022 57.2383659,55.9007977 57.0612948,55.9011845 C54.3219818,55.9071683 52.0964791,53.6913672 52.0904953,50.9520542 C52.0900836,50.7635968 52.1004131,50.575269 52.1214336,50.3879871 L56.3602043,12.6226472 C56.4046161,12.2269603 56.7385267,11.927375 57.1366958,11.9259776 Z" id="Rectangle-Copy-2" fill="#0D76D6" transform="translate(57.061295, 33.918428) rotate(59.000000) translate(-57.061295, -33.918428) "></path>
        </g>
    </g>
</svg>